<mxfile host="app.diagrams.net" modified="2024-01-09T09:43:13.292Z" agent="Mozilla/5.0 (Macintosh; Intel Mac OS X 10_15_7) AppleWebKit/537.36 (KHTML, like Gecko) Chrome/120.0.0.0 Safari/537.36" etag="18NvWCabIJFRFxwnDPfg" version="22.1.17" type="device">
  <diagram name="Page-1" id="f40HcSxTDb_pmB_XGO6_">
    <mxGraphModel dx="2183" dy="1122" grid="1" gridSize="10" guides="1" tooltips="1" connect="1" arrows="1" fold="1" page="1" pageScale="1" pageWidth="850" pageHeight="1100" math="0" shadow="0">
      <root>
        <mxCell id="0" />
        <mxCell id="1" parent="0" />
      </root>
    </mxGraphModel>
  </diagram>
</mxfile>
